<svg width="542" height="299" viewBox="0 0 542 299" fill="none" xmlns="http://www.w3.org/2000/svg">
<path fill-rule="evenodd" clip-rule="evenodd" d="M112.716 52.2666L74.9002 76.4595L76.1716 84.9674C85.8794 149.939 118.282 202.061 165.665 228.922C170.485 231.653 176.322 234.427 178.64 235.086L182.852 236.284L216.583 207.613L250.314 178.942L240.499 173.089C202.844 150.636 173.867 111.531 159.207 63.3842C155.502 51.2146 151.006 31.1937 151.608 29.5442C151.799 29.0219 151.635 28.4776 151.243 28.3346C150.852 28.1919 133.515 38.9614 112.716 52.2666ZM53.5338 124.935C47.4841 130.484 38.6959 138.483 34.0038 142.71L25.4728 150.396L30.4322 158.013C51.9943 191.123 85.9895 220.159 125.887 239.544C138.059 245.458 177.255 259.043 188.457 261.23C195.133 262.534 196.195 262.461 197.93 260.585C199.006 259.422 210.102 249.027 222.589 237.484C235.074 225.941 244.757 216.781 244.104 217.128C243.451 217.475 231.349 226.111 217.211 236.319C203.072 246.527 191.236 254.792 190.909 254.684C190.582 254.577 184.094 252.663 176.491 250.432C153.918 243.804 125.83 230.904 107.09 218.559C82.3192 202.242 60.1247 179.368 48.303 157.972L45.4181 152.753L57.8209 141.378C64.6419 135.122 70.4435 129.398 70.7134 128.659C71.1544 127.451 66.1082 115.42 64.9904 115.012C64.7377 114.92 59.5826 119.386 53.5338 124.935ZM222.107 260.893C210.458 273.39 212.134 272.688 197.007 271.399C182.985 270.203 163.356 266.618 145.025 261.906C118.45 255.074 56.3231 230.41 41.4446 220.785L39.378 219.448L44.0476 208.517L48.7175 197.586L45.7813 195.265C44.166 193.989 42.571 193.071 42.2366 193.226C41.7349 193.46 27.6465 217.584 26.9493 219.407C26.6771 220.118 42.3995 229.644 54.8355 236.305C85.1919 252.563 126.02 267.473 156.282 273.353C171.72 276.352 189.084 278.523 201.948 279.062L214.026 279.566L223.259 265.39C228.338 257.593 232.494 250.882 232.497 250.478C232.499 250.074 227.823 254.761 222.107 260.893Z" fill="#262A7C"/>
<mask id="path-2-outside-1_2404_336" maskUnits="userSpaceOnUse" x="132.28" y="-0.99585" width="409" height="268" fill="black">
<rect fill="white" x="132.28" y="-0.99585" width="409" height="268"/>
<path fill-rule="evenodd" clip-rule="evenodd" d="M414.68 21.3529C419.838 15.9449 418.933 18.2991 423.156 20.0639C427.379 21.8286 428.861 22.4539 431.368 34.2289C432.638 40.1981 433.953 68.1817 434.777 96.4926C436.649 97.8487 439.154 99.0863 441.211 100.054C441.332 100.111 441.453 100.17 441.573 100.229C441.53 98.7477 441.571 97.5505 441.728 96.9232C442.41 94.2062 442.678 94.1522 445.421 92.9584C448.164 91.7646 456.265 91.0743 459.995 92.4926C463.725 93.911 465.598 98.4352 465.634 104.73C465.646 106.755 465.62 108.179 465.524 109.239C467.302 110.153 469.034 111.438 470.528 113.151C473.042 116.034 475.476 118.005 477.762 120.022C478.131 120.347 478.49 120.667 478.842 120.981C478.975 120.84 479.108 120.696 479.245 120.553C488.079 111.278 492.791 109.065 497.859 109.061C502.927 109.057 503.376 109.92 505.203 111.874C507.029 113.829 508.616 116.176 510.829 120.377C513.042 124.579 513.985 129.489 514.438 139.183C514.891 148.877 514.817 150.406 515.601 156.745C516.352 162.807 509.173 174.718 501.322 179.59C501.748 182.583 502.081 187.308 502.143 197.293C502.148 198.058 502.119 198.773 502.06 199.455C502.739 198.95 503.345 198.525 503.837 198.214C505.974 196.864 508.317 195.221 511.022 192.768C513.727 190.315 515.983 190.215 515.983 193.039C515.983 195.864 520.816 202.662 522.131 203.499C523.447 204.337 523.174 204.554 523.174 207.603C523.174 210.652 518.333 216.254 514.352 218.045C510.371 219.836 512.95 216.516 507.17 223.815C501.389 231.114 474.597 241.708 469.846 236.957C468.159 235.27 467.276 234.027 466.786 232.082C465.772 232.449 464.758 232.796 463.764 232.99C462.834 233.171 461.753 233.313 460.473 233.424C459.641 244.752 458.098 246.534 455.627 247.919C451.869 250.026 450.172 248.208 444.571 246.03C438.97 243.851 437.66 245.609 436.054 242.715C434.449 239.822 436.348 238.588 436.609 234.923C436.66 234.209 436.735 233.324 436.827 232.312C434.369 231.181 432.408 229.609 431.298 228.3C430.632 232.327 429.839 234.911 428.917 235.833C426.544 238.206 425.729 237.094 421.724 235.069C417.719 233.044 416.543 231.26 415.697 229.593C414.851 227.926 416.608 229.873 414.041 226.329C411.473 222.786 404.108 226.236 395.29 226.154C386.471 226.071 376.834 226.048 375.875 225.827C374.915 225.605 373.831 222.949 375.484 216.6C375.545 216.367 375.603 216.111 375.664 215.834C374.705 216.023 373.842 216.213 373.066 216.406C371.538 216.785 369.672 216.992 367.678 217.081C366.491 221.242 365.863 222.641 364.723 223.901C363.369 225.397 356.267 225.718 352.724 224.645C349.181 223.572 351.783 223.985 343.2 222.698C336.322 221.666 328.927 215.102 327.686 209.776C325.757 209.177 323.874 208.53 322.405 208.076C321.896 207.918 321.361 207.778 320.809 207.655C320.162 209.813 319.437 210.592 318.66 211.825C316.539 215.186 317.753 214.011 311.926 214.011C306.099 214.011 269.395 216.667 268.1 217.467C267.339 217.937 266.82 215.854 266.701 213.359C265.578 213.534 264.567 213.694 263.679 213.842C261.433 214.218 259.578 215.463 257.498 216.59C257.494 216.706 257.491 216.818 257.491 216.927C257.476 221.549 257.645 221.635 256.878 224.497C256.11 227.36 244.382 230.047 240.98 228.103C237.579 226.158 237.019 226.706 231.093 226.679C225.168 226.652 225.568 229.266 221.377 223.576C217.185 217.885 203.29 205.873 198.223 204.794C193.156 203.715 186.411 197.114 184.584 193.533C182.756 189.952 183.131 189.989 178.82 187.789C174.879 185.779 174.358 176.635 177 170.842C176.497 170.676 175.983 170.505 175.458 170.329C171.884 169.129 168.773 169.323 166.113 168.68C162.606 167.832 160.341 166.762 158.048 166.297C157.365 166.159 156.751 166.001 156.199 165.829C153.818 167.622 152.193 168.823 152.067 168.858C151.575 168.987 150.371 168.209 150.283 167.881C150.195 167.554 151.878 159.156 153.374 151.711C154.87 144.267 154.833 139.112 156.555 135.88C158.277 132.649 157.26 134.693 157.886 133.639C158.513 132.585 160.155 129.899 164.172 123.481C168.188 117.062 178.067 101.235 184.535 90.8598C191.003 80.4844 190.632 81.1911 190.71 81.2016C190.775 81.2126 194.258 83.3609 198.164 85.7885C198.756 84.8161 199.136 83.6942 199.499 82.5658C195.879 80.306 192.961 78.4767 192.802 78.348C192.381 78.0053 192.626 77.9087 194.659 74.6488C196.692 71.3888 197.458 70.2647 199.067 69.3197C200.676 68.3748 204.085 68.0772 205.656 68.6039C205.889 68.682 206.248 68.8495 206.698 69.0805C207.5 66.778 208.65 64.0531 210.253 60.5873C210.926 59.1305 211.814 58.1051 212.635 57.1898C213.464 56.2666 214.651 55.8594 215.927 55.5502C213.963 53.9544 212.38 52.0754 212.107 50.7025C211.43 47.2976 211.469 50.5648 212.066 47.1312C212.663 43.6977 221.323 36.9447 224.01 39.3119C226.697 41.679 225.495 39.7427 226.206 42.7309C226.917 45.7189 216.177 44.3092 216.272 48.8519C216.347 52.4112 222.852 52.0701 225.38 53.2123C226.47 53.0241 227.694 52.8292 229.115 52.6059C229.616 52.5272 230.133 52.4548 230.675 52.3871C229.54 47.0247 230.447 39.4805 234.078 37.0326C239.718 33.23 247.46 33.5012 247.894 36.8715C248.328 40.2411 248.563 38.4043 247.42 40.4262C246.275 42.4473 240.59 38.2543 239.109 40.5228C237.628 42.7918 237.629 44.0913 239.174 46.0893C240.721 48.0861 245.592 44.0917 246.545 46.0023C247.496 47.9136 247.494 47.6338 246.587 49.5668C245.679 51.4996 241.491 47.5944 239.215 49.6527C238.61 50.2006 238.493 50.9512 238.602 51.7836C241.686 51.6422 245.48 51.5307 250.341 51.4125C250.401 51.411 250.462 51.4073 250.525 51.4057C250.458 50.8887 250.421 50.3498 250.415 49.7943C250.394 48.0406 250.68 46.5864 251.287 45.2953C251.893 44.0041 252.777 42.9926 253.936 42.2611C255.095 41.5297 256.491 41.1545 258.139 41.1351C259.787 41.1159 261.212 41.4527 262.383 42.1469C263.554 42.841 264.456 43.8313 265.088 45.1029C265.719 46.3747 266.045 47.8273 266.065 49.5814C266.071 50.0814 266.049 50.5676 266.004 51.0375C267.772 51.0263 269.66 51.0272 271.661 51.0443C272.211 51.049 272.773 51.0595 273.346 51.0726C273.629 48.3728 273.057 44.9795 271.669 44.6928C269.407 44.2256 270.415 45.282 269.546 44.7172C268.677 44.1523 268.682 43.0751 269.508 41.5326C270.335 39.9901 274.023 40.1046 275.287 41.4652C276.55 42.826 275.657 46.4509 276.209 45.0795C276.761 43.7079 277.485 42.6472 278.372 41.9594C279.259 41.2718 280.73 40.9165 281.65 40.9057C282.57 40.8949 282.682 40.9438 283.108 41.0248C283.534 41.1058 283.934 41.2125 284.31 41.3598C284.306 41.3945 283.84 45.5818 282.9 45.3344C281.957 45.0861 282.312 45.2005 282.018 45.1635C281.725 45.1265 281.75 45.1055 281.047 45.1137C280.345 45.1219 279.07 45.5663 278.287 46.435C277.503 47.3035 276.979 48.2052 276.521 49.7318C276.391 50.165 276.237 50.6555 276.113 51.1547C278.38 51.2327 280.845 51.328 283.587 51.3822C283.147 47.0232 284.023 41.8453 286.224 41.3373C289.958 40.4757 289.18 40.472 289.743 41.2963C290.306 42.1206 289.65 43.4535 290.08 42.8539C290.51 42.2546 291.081 41.6347 291.592 41.2748C292.104 40.9149 292.764 40.7298 293.422 40.7221C294.079 40.7144 294.541 40.8708 294.974 41.1742C295.407 41.4777 295.211 42.4905 295.916 42.6039C296.62 42.7171 296.925 41.5662 297.507 41.2055C298.09 40.8448 298.704 40.6604 299.442 40.6518C300.18 40.6431 300.844 40.7971 301.343 41.1146C301.842 41.4323 302.218 41.9437 302.468 42.6332C302.719 43.3229 302.83 42.4453 302.864 45.3285C302.878 46.5417 303.425 48.6581 303.837 50.7807C306.583 50.5989 308.964 50.4218 310.652 50.3129C310.666 50.312 310.681 50.3109 310.695 50.31C309.869 50.0723 309.171 49.8001 308.528 49.4643C307.77 49.0686 307.178 48.5543 306.751 47.9223C306.324 47.2903 306.112 46.5044 306.101 45.5492C306.09 44.5938 306.348 43.7304 306.875 42.976C307.402 42.2217 308.184 41.6317 309.22 41.1898C310.257 40.748 311.563 40.5098 313.034 40.4926C314.505 40.4754 315.716 40.6536 316.787 41.0101C317.857 41.3666 318.643 41.7092 319.578 42.3725C320.513 43.0359 318.606 45.7629 317.701 45.2162C316.796 44.6685 316.307 44.4939 315.536 44.2553C314.764 44.0165 313.989 43.8946 313.211 43.9037C312.432 43.9128 311.847 44.0309 311.47 44.2426C311.094 44.4543 310.916 44.8305 310.92 45.1742C310.924 45.5178 311.017 45.6884 311.216 45.8832C311.416 46.0781 311.797 46.2761 312.345 46.4769C312.894 46.6778 313.701 46.9214 314.751 47.2074C315.801 47.4934 316.699 47.8166 317.477 48.1918C318.255 48.5669 318.868 49.0801 319.3 49.7172L319.301 49.7182C321.867 49.5281 324.077 49.3479 325.227 49.2143C327.505 48.9496 329.985 48.2054 332.374 47.5678C333.604 47.2392 334.882 46.9086 336.183 46.601C333.796 44.2225 326.413 45.127 326.873 42.5717C327.417 39.5433 326.362 41.4139 328.986 38.9437C331.42 36.654 339.176 42.1259 340.836 45.6605C341.067 45.6232 341.297 45.584 341.528 45.5502C346.077 44.8831 348.311 44.9068 350.694 44.4506C353.77 43.8617 357.458 43.8081 360.407 43.3519C360.848 43.2838 361.303 43.1984 361.769 43.1059C362.006 39.4596 362.533 36.3655 363.412 34.4301C365.69 29.4088 373.866 26.4519 382.04 25.0258C390.213 23.5997 390.138 23.6131 394.03 22.7016C397.922 21.7901 402.427 21.7963 402.837 22.8617C403.24 23.9122 404.135 22.166 401.982 27.3295C405.195 26.98 408.359 27.1018 411.141 27.5209C412.13 24.8536 413.349 22.7484 414.68 21.3529ZM164.372 137.094C164.335 136.951 163.081 137.207 161.406 137.656C159.731 138.105 160.721 137.228 158.495 138.435C156.268 139.642 157.465 143.61 156.551 148.203C155.85 151.728 155.079 155.642 154.754 157.312C156.758 154.284 159.293 152.136 160.781 149.998C162.311 147.801 162.892 145.511 164.172 142.947C164.5 142.291 164.823 141.651 165.142 141.025C165.137 140.998 165.132 140.971 165.127 140.945C164.742 138.949 164.409 137.24 164.372 137.094ZM492.16 136.269C492.547 136.92 492.938 137.606 493.34 138.337C495.41 142.105 496.133 147.318 497.513 152.143C497.516 151.949 497.52 151.75 497.52 151.548C497.52 147.21 497.03 143.92 495.971 140.814C494.925 137.742 493.885 136.3 492.16 136.269ZM291.314 44.6908C291.049 44.8393 292.03 43.4891 290.444 45.5199C289.695 46.4802 290.341 48.945 290.922 51.391C291.313 51.3832 291.706 51.3732 292.099 51.3627C292.437 49.2232 292.935 47.0803 292.922 45.9916C292.893 43.4879 292.85 45.026 292.741 44.7953C292.632 44.564 292.388 44.4501 292.1 44.4535C291.812 44.4569 291.58 44.5411 291.314 44.6908ZM258.181 44.6684C257.201 44.6798 256.472 45.0976 256.011 45.9066C255.551 46.7159 255.337 47.9726 255.358 49.7367C255.364 50.2851 255.395 50.7888 255.445 51.2465C257.061 51.195 258.943 51.1406 261.071 51.1C261.108 50.6533 261.127 50.1656 261.121 49.6391C261.1 47.87 260.843 46.6344 260.364 45.8412C259.884 45.048 259.162 44.6569 258.181 44.6684ZM297.153 44.6225C296.887 44.7714 297.869 43.4204 296.283 45.4516C295.555 46.3845 296.126 48.7855 296.681 51.1918C297.099 51.1723 297.515 51.1523 297.928 51.1312C298.277 49.0518 298.773 46.9954 298.76 45.9232C298.731 43.4195 298.689 44.9578 298.58 44.7269C298.471 44.4956 298.227 44.3818 297.939 44.3851C297.651 44.3885 297.419 44.4727 297.153 44.6225Z"/>
</mask>
<path fill-rule="evenodd" clip-rule="evenodd" d="M414.68 21.3529C419.838 15.9449 418.933 18.2991 423.156 20.0639C427.379 21.8286 428.861 22.4539 431.368 34.2289C432.638 40.1981 433.953 68.1817 434.777 96.4926C436.649 97.8487 439.154 99.0863 441.211 100.054C441.332 100.111 441.453 100.17 441.573 100.229C441.53 98.7477 441.571 97.5505 441.728 96.9232C442.41 94.2062 442.678 94.1522 445.421 92.9584C448.164 91.7646 456.265 91.0743 459.995 92.4926C463.725 93.911 465.598 98.4352 465.634 104.73C465.646 106.755 465.62 108.179 465.524 109.239C467.302 110.153 469.034 111.438 470.528 113.151C473.042 116.034 475.476 118.005 477.762 120.022C478.131 120.347 478.49 120.667 478.842 120.981C478.975 120.84 479.108 120.696 479.245 120.553C488.079 111.278 492.791 109.065 497.859 109.061C502.927 109.057 503.376 109.92 505.203 111.874C507.029 113.829 508.616 116.176 510.829 120.377C513.042 124.579 513.985 129.489 514.438 139.183C514.891 148.877 514.817 150.406 515.601 156.745C516.352 162.807 509.173 174.718 501.322 179.59C501.748 182.583 502.081 187.308 502.143 197.293C502.148 198.058 502.119 198.773 502.06 199.455C502.739 198.95 503.345 198.525 503.837 198.214C505.974 196.864 508.317 195.221 511.022 192.768C513.727 190.315 515.983 190.215 515.983 193.039C515.983 195.864 520.816 202.662 522.131 203.499C523.447 204.337 523.174 204.554 523.174 207.603C523.174 210.652 518.333 216.254 514.352 218.045C510.371 219.836 512.95 216.516 507.17 223.815C501.389 231.114 474.597 241.708 469.846 236.957C468.159 235.27 467.276 234.027 466.786 232.082C465.772 232.449 464.758 232.796 463.764 232.99C462.834 233.171 461.753 233.313 460.473 233.424C459.641 244.752 458.098 246.534 455.627 247.919C451.869 250.026 450.172 248.208 444.571 246.03C438.97 243.851 437.66 245.609 436.054 242.715C434.449 239.822 436.348 238.588 436.609 234.923C436.66 234.209 436.735 233.324 436.827 232.312C434.369 231.181 432.408 229.609 431.298 228.3C430.632 232.327 429.839 234.911 428.917 235.833C426.544 238.206 425.729 237.094 421.724 235.069C417.719 233.044 416.543 231.26 415.697 229.593C414.851 227.926 416.608 229.873 414.041 226.329C411.473 222.786 404.108 226.236 395.29 226.154C386.471 226.071 376.834 226.048 375.875 225.827C374.915 225.605 373.831 222.949 375.484 216.6C375.545 216.367 375.603 216.111 375.664 215.834C374.705 216.023 373.842 216.213 373.066 216.406C371.538 216.785 369.672 216.992 367.678 217.081C366.491 221.242 365.863 222.641 364.723 223.901C363.369 225.397 356.267 225.718 352.724 224.645C349.181 223.572 351.783 223.985 343.2 222.698C336.322 221.666 328.927 215.102 327.686 209.776C325.757 209.177 323.874 208.53 322.405 208.076C321.896 207.918 321.361 207.778 320.809 207.655C320.162 209.813 319.437 210.592 318.66 211.825C316.539 215.186 317.753 214.011 311.926 214.011C306.099 214.011 269.395 216.667 268.1 217.467C267.339 217.937 266.82 215.854 266.701 213.359C265.578 213.534 264.567 213.694 263.679 213.842C261.433 214.218 259.578 215.463 257.498 216.59C257.494 216.706 257.491 216.818 257.491 216.927C257.476 221.549 257.645 221.635 256.878 224.497C256.11 227.36 244.382 230.047 240.98 228.103C237.579 226.158 237.019 226.706 231.093 226.679C225.168 226.652 225.568 229.266 221.377 223.576C217.185 217.885 203.29 205.873 198.223 204.794C193.156 203.715 186.411 197.114 184.584 193.533C182.756 189.952 183.131 189.989 178.82 187.789C174.879 185.779 174.358 176.635 177 170.842C176.497 170.676 175.983 170.505 175.458 170.329C171.884 169.129 168.773 169.323 166.113 168.68C162.606 167.832 160.341 166.762 158.048 166.297C157.365 166.159 156.751 166.001 156.199 165.829C153.818 167.622 152.193 168.823 152.067 168.858C151.575 168.987 150.371 168.209 150.283 167.881C150.195 167.554 151.878 159.156 153.374 151.711C154.87 144.267 154.833 139.112 156.555 135.88C158.277 132.649 157.26 134.693 157.886 133.639C158.513 132.585 160.155 129.899 164.172 123.481C168.188 117.062 178.067 101.235 184.535 90.8598C191.003 80.4844 190.632 81.1911 190.71 81.2016C190.775 81.2126 194.258 83.3609 198.164 85.7885C198.756 84.8161 199.136 83.6942 199.499 82.5658C195.879 80.306 192.961 78.4767 192.802 78.348C192.381 78.0053 192.626 77.9087 194.659 74.6488C196.692 71.3888 197.458 70.2647 199.067 69.3197C200.676 68.3748 204.085 68.0772 205.656 68.6039C205.889 68.682 206.248 68.8495 206.698 69.0805C207.5 66.778 208.65 64.0531 210.253 60.5873C210.926 59.1305 211.814 58.1051 212.635 57.1898C213.464 56.2666 214.651 55.8594 215.927 55.5502C213.963 53.9544 212.38 52.0754 212.107 50.7025C211.43 47.2976 211.469 50.5648 212.066 47.1312C212.663 43.6977 221.323 36.9447 224.01 39.3119C226.697 41.679 225.495 39.7427 226.206 42.7309C226.917 45.7189 216.177 44.3092 216.272 48.8519C216.347 52.4112 222.852 52.0701 225.38 53.2123C226.47 53.0241 227.694 52.8292 229.115 52.6059C229.616 52.5272 230.133 52.4548 230.675 52.3871C229.54 47.0247 230.447 39.4805 234.078 37.0326C239.718 33.23 247.46 33.5012 247.894 36.8715C248.328 40.2411 248.563 38.4043 247.42 40.4262C246.275 42.4473 240.59 38.2543 239.109 40.5228C237.628 42.7918 237.629 44.0913 239.174 46.0893C240.721 48.0861 245.592 44.0917 246.545 46.0023C247.496 47.9136 247.494 47.6338 246.587 49.5668C245.679 51.4996 241.491 47.5944 239.215 49.6527C238.61 50.2006 238.493 50.9512 238.602 51.7836C241.686 51.6422 245.48 51.5307 250.341 51.4125C250.401 51.411 250.462 51.4073 250.525 51.4057C250.458 50.8887 250.421 50.3498 250.415 49.7943C250.394 48.0406 250.68 46.5864 251.287 45.2953C251.893 44.0041 252.777 42.9926 253.936 42.2611C255.095 41.5297 256.491 41.1545 258.139 41.1351C259.787 41.1159 261.212 41.4527 262.383 42.1469C263.554 42.841 264.456 43.8313 265.088 45.1029C265.719 46.3747 266.045 47.8273 266.065 49.5814C266.071 50.0814 266.049 50.5676 266.004 51.0375C267.772 51.0263 269.66 51.0272 271.661 51.0443C272.211 51.049 272.773 51.0595 273.346 51.0726C273.629 48.3728 273.057 44.9795 271.669 44.6928C269.407 44.2256 270.415 45.282 269.546 44.7172C268.677 44.1523 268.682 43.0751 269.508 41.5326C270.335 39.9901 274.023 40.1046 275.287 41.4652C276.55 42.826 275.657 46.4509 276.209 45.0795C276.761 43.7079 277.485 42.6472 278.372 41.9594C279.259 41.2718 280.73 40.9165 281.65 40.9057C282.57 40.8949 282.682 40.9438 283.108 41.0248C283.534 41.1058 283.934 41.2125 284.31 41.3598C284.306 41.3945 283.84 45.5818 282.9 45.3344C281.957 45.0861 282.312 45.2005 282.018 45.1635C281.725 45.1265 281.75 45.1055 281.047 45.1137C280.345 45.1219 279.07 45.5663 278.287 46.435C277.503 47.3035 276.979 48.2052 276.521 49.7318C276.391 50.165 276.237 50.6555 276.113 51.1547C278.38 51.2327 280.845 51.328 283.587 51.3822C283.147 47.0232 284.023 41.8453 286.224 41.3373C289.958 40.4757 289.18 40.472 289.743 41.2963C290.306 42.1206 289.65 43.4535 290.08 42.8539C290.51 42.2546 291.081 41.6347 291.592 41.2748C292.104 40.9149 292.764 40.7298 293.422 40.7221C294.079 40.7144 294.541 40.8708 294.974 41.1742C295.407 41.4777 295.211 42.4905 295.916 42.6039C296.62 42.7171 296.925 41.5662 297.507 41.2055C298.09 40.8448 298.704 40.6604 299.442 40.6518C300.18 40.6431 300.844 40.7971 301.343 41.1146C301.842 41.4323 302.218 41.9437 302.468 42.6332C302.719 43.3229 302.83 42.4453 302.864 45.3285C302.878 46.5417 303.425 48.6581 303.837 50.7807C306.583 50.5989 308.964 50.4218 310.652 50.3129C310.666 50.312 310.681 50.3109 310.695 50.31C309.869 50.0723 309.171 49.8001 308.528 49.4643C307.77 49.0686 307.178 48.5543 306.751 47.9223C306.324 47.2903 306.112 46.5044 306.101 45.5492C306.09 44.5938 306.348 43.7304 306.875 42.976C307.402 42.2217 308.184 41.6317 309.22 41.1898C310.257 40.748 311.563 40.5098 313.034 40.4926C314.505 40.4754 315.716 40.6536 316.787 41.0101C317.857 41.3666 318.643 41.7092 319.578 42.3725C320.513 43.0359 318.606 45.7629 317.701 45.2162C316.796 44.6685 316.307 44.4939 315.536 44.2553C314.764 44.0165 313.989 43.8946 313.211 43.9037C312.432 43.9128 311.847 44.0309 311.47 44.2426C311.094 44.4543 310.916 44.8305 310.92 45.1742C310.924 45.5178 311.017 45.6884 311.216 45.8832C311.416 46.0781 311.797 46.2761 312.345 46.4769C312.894 46.6778 313.701 46.9214 314.751 47.2074C315.801 47.4934 316.699 47.8166 317.477 48.1918C318.255 48.5669 318.868 49.0801 319.3 49.7172L319.301 49.7182C321.867 49.5281 324.077 49.3479 325.227 49.2143C327.505 48.9496 329.985 48.2054 332.374 47.5678C333.604 47.2392 334.882 46.9086 336.183 46.601C333.796 44.2225 326.413 45.127 326.873 42.5717C327.417 39.5433 326.362 41.4139 328.986 38.9437C331.42 36.654 339.176 42.1259 340.836 45.6605C341.067 45.6232 341.297 45.584 341.528 45.5502C346.077 44.8831 348.311 44.9068 350.694 44.4506C353.77 43.8617 357.458 43.8081 360.407 43.3519C360.848 43.2838 361.303 43.1984 361.769 43.1059C362.006 39.4596 362.533 36.3655 363.412 34.4301C365.69 29.4088 373.866 26.4519 382.04 25.0258C390.213 23.5997 390.138 23.6131 394.03 22.7016C397.922 21.7901 402.427 21.7963 402.837 22.8617C403.24 23.9122 404.135 22.166 401.982 27.3295C405.195 26.98 408.359 27.1018 411.141 27.5209C412.13 24.8536 413.349 22.7484 414.68 21.3529ZM164.372 137.094C164.335 136.951 163.081 137.207 161.406 137.656C159.731 138.105 160.721 137.228 158.495 138.435C156.268 139.642 157.465 143.61 156.551 148.203C155.85 151.728 155.079 155.642 154.754 157.312C156.758 154.284 159.293 152.136 160.781 149.998C162.311 147.801 162.892 145.511 164.172 142.947C164.5 142.291 164.823 141.651 165.142 141.025C165.137 140.998 165.132 140.971 165.127 140.945C164.742 138.949 164.409 137.24 164.372 137.094ZM492.16 136.269C492.547 136.92 492.938 137.606 493.34 138.337C495.41 142.105 496.133 147.318 497.513 152.143C497.516 151.949 497.52 151.75 497.52 151.548C497.52 147.21 497.03 143.92 495.971 140.814C494.925 137.742 493.885 136.3 492.16 136.269ZM291.314 44.6908C291.049 44.8393 292.03 43.4891 290.444 45.5199C289.695 46.4802 290.341 48.945 290.922 51.391C291.313 51.3832 291.706 51.3732 292.099 51.3627C292.437 49.2232 292.935 47.0803 292.922 45.9916C292.893 43.4879 292.85 45.026 292.741 44.7953C292.632 44.564 292.388 44.4501 292.1 44.4535C291.812 44.4569 291.58 44.5411 291.314 44.6908ZM258.181 44.6684C257.201 44.6798 256.472 45.0976 256.011 45.9066C255.551 46.7159 255.337 47.9726 255.358 49.7367C255.364 50.2851 255.395 50.7888 255.445 51.2465C257.061 51.195 258.943 51.1406 261.071 51.1C261.108 50.6533 261.127 50.1656 261.121 49.6391C261.1 47.87 260.843 46.6344 260.364 45.8412C259.884 45.048 259.162 44.6569 258.181 44.6684ZM297.153 44.6225C296.887 44.7714 297.869 43.4204 296.283 45.4516C295.555 46.3845 296.126 48.7855 296.681 51.1918C297.099 51.1723 297.515 51.1523 297.928 51.1312C298.277 49.0518 298.773 46.9954 298.76 45.9232C298.731 43.4195 298.689 44.9578 298.58 44.7269C298.471 44.4956 298.227 44.3818 297.939 44.3851C297.651 44.3885 297.419 44.4727 297.153 44.6225Z" fill="#34399E"/>
<path fill-rule="evenodd" clip-rule="evenodd" d="M414.68 21.3529C419.838 15.9449 418.933 18.2991 423.156 20.0639C427.379 21.8286 428.861 22.4539 431.368 34.2289C432.638 40.1981 433.953 68.1817 434.777 96.4926C436.649 97.8487 439.154 99.0863 441.211 100.054C441.332 100.111 441.453 100.17 441.573 100.229C441.53 98.7477 441.571 97.5505 441.728 96.9232C442.41 94.2062 442.678 94.1522 445.421 92.9584C448.164 91.7646 456.265 91.0743 459.995 92.4926C463.725 93.911 465.598 98.4352 465.634 104.73C465.646 106.755 465.62 108.179 465.524 109.239C467.302 110.153 469.034 111.438 470.528 113.151C473.042 116.034 475.476 118.005 477.762 120.022C478.131 120.347 478.49 120.667 478.842 120.981C478.975 120.84 479.108 120.696 479.245 120.553C488.079 111.278 492.791 109.065 497.859 109.061C502.927 109.057 503.376 109.92 505.203 111.874C507.029 113.829 508.616 116.176 510.829 120.377C513.042 124.579 513.985 129.489 514.438 139.183C514.891 148.877 514.817 150.406 515.601 156.745C516.352 162.807 509.173 174.718 501.322 179.59C501.748 182.583 502.081 187.308 502.143 197.293C502.148 198.058 502.119 198.773 502.06 199.455C502.739 198.95 503.345 198.525 503.837 198.214C505.974 196.864 508.317 195.221 511.022 192.768C513.727 190.315 515.983 190.215 515.983 193.039C515.983 195.864 520.816 202.662 522.131 203.499C523.447 204.337 523.174 204.554 523.174 207.603C523.174 210.652 518.333 216.254 514.352 218.045C510.371 219.836 512.95 216.516 507.17 223.815C501.389 231.114 474.597 241.708 469.846 236.957C468.159 235.27 467.276 234.027 466.786 232.082C465.772 232.449 464.758 232.796 463.764 232.99C462.834 233.171 461.753 233.313 460.473 233.424C459.641 244.752 458.098 246.534 455.627 247.919C451.869 250.026 450.172 248.208 444.571 246.03C438.97 243.851 437.66 245.609 436.054 242.715C434.449 239.822 436.348 238.588 436.609 234.923C436.66 234.209 436.735 233.324 436.827 232.312C434.369 231.181 432.408 229.609 431.298 228.3C430.632 232.327 429.839 234.911 428.917 235.833C426.544 238.206 425.729 237.094 421.724 235.069C417.719 233.044 416.543 231.26 415.697 229.593C414.851 227.926 416.608 229.873 414.041 226.329C411.473 222.786 404.108 226.236 395.29 226.154C386.471 226.071 376.834 226.048 375.875 225.827C374.915 225.605 373.831 222.949 375.484 216.6C375.545 216.367 375.603 216.111 375.664 215.834C374.705 216.023 373.842 216.213 373.066 216.406C371.538 216.785 369.672 216.992 367.678 217.081C366.491 221.242 365.863 222.641 364.723 223.901C363.369 225.397 356.267 225.718 352.724 224.645C349.181 223.572 351.783 223.985 343.2 222.698C336.322 221.666 328.927 215.102 327.686 209.776C325.757 209.177 323.874 208.53 322.405 208.076C321.896 207.918 321.361 207.778 320.809 207.655C320.162 209.813 319.437 210.592 318.66 211.825C316.539 215.186 317.753 214.011 311.926 214.011C306.099 214.011 269.395 216.667 268.1 217.467C267.339 217.937 266.82 215.854 266.701 213.359C265.578 213.534 264.567 213.694 263.679 213.842C261.433 214.218 259.578 215.463 257.498 216.59C257.494 216.706 257.491 216.818 257.491 216.927C257.476 221.549 257.645 221.635 256.878 224.497C256.11 227.36 244.382 230.047 240.98 228.103C237.579 226.158 237.019 226.706 231.093 226.679C225.168 226.652 225.568 229.266 221.377 223.576C217.185 217.885 203.29 205.873 198.223 204.794C193.156 203.715 186.411 197.114 184.584 193.533C182.756 189.952 183.131 189.989 178.82 187.789C174.879 185.779 174.358 176.635 177 170.842C176.497 170.676 175.983 170.505 175.458 170.329C171.884 169.129 168.773 169.323 166.113 168.68C162.606 167.832 160.341 166.762 158.048 166.297C157.365 166.159 156.751 166.001 156.199 165.829C153.818 167.622 152.193 168.823 152.067 168.858C151.575 168.987 150.371 168.209 150.283 167.881C150.195 167.554 151.878 159.156 153.374 151.711C154.87 144.267 154.833 139.112 156.555 135.88C158.277 132.649 157.26 134.693 157.886 133.639C158.513 132.585 160.155 129.899 164.172 123.481C168.188 117.062 178.067 101.235 184.535 90.8598C191.003 80.4844 190.632 81.1911 190.71 81.2016C190.775 81.2126 194.258 83.3609 198.164 85.7885C198.756 84.8161 199.136 83.6942 199.499 82.5658C195.879 80.306 192.961 78.4767 192.802 78.348C192.381 78.0053 192.626 77.9087 194.659 74.6488C196.692 71.3888 197.458 70.2647 199.067 69.3197C200.676 68.3748 204.085 68.0772 205.656 68.6039C205.889 68.682 206.248 68.8495 206.698 69.0805C207.5 66.778 208.65 64.0531 210.253 60.5873C210.926 59.1305 211.814 58.1051 212.635 57.1898C213.464 56.2666 214.651 55.8594 215.927 55.5502C213.963 53.9544 212.38 52.0754 212.107 50.7025C211.43 47.2976 211.469 50.5648 212.066 47.1312C212.663 43.6977 221.323 36.9447 224.01 39.3119C226.697 41.679 225.495 39.7427 226.206 42.7309C226.917 45.7189 216.177 44.3092 216.272 48.8519C216.347 52.4112 222.852 52.0701 225.38 53.2123C226.47 53.0241 227.694 52.8292 229.115 52.6059C229.616 52.5272 230.133 52.4548 230.675 52.3871C229.54 47.0247 230.447 39.4805 234.078 37.0326C239.718 33.23 247.46 33.5012 247.894 36.8715C248.328 40.2411 248.563 38.4043 247.42 40.4262C246.275 42.4473 240.59 38.2543 239.109 40.5228C237.628 42.7918 237.629 44.0913 239.174 46.0893C240.721 48.0861 245.592 44.0917 246.545 46.0023C247.496 47.9136 247.494 47.6338 246.587 49.5668C245.679 51.4996 241.491 47.5944 239.215 49.6527C238.61 50.2006 238.493 50.9512 238.602 51.7836C241.686 51.6422 245.48 51.5307 250.341 51.4125C250.401 51.411 250.462 51.4073 250.525 51.4057C250.458 50.8887 250.421 50.3498 250.415 49.7943C250.394 48.0406 250.68 46.5864 251.287 45.2953C251.893 44.0041 252.777 42.9926 253.936 42.2611C255.095 41.5297 256.491 41.1545 258.139 41.1351C259.787 41.1159 261.212 41.4527 262.383 42.1469C263.554 42.841 264.456 43.8313 265.088 45.1029C265.719 46.3747 266.045 47.8273 266.065 49.5814C266.071 50.0814 266.049 50.5676 266.004 51.0375C267.772 51.0263 269.66 51.0272 271.661 51.0443C272.211 51.049 272.773 51.0595 273.346 51.0726C273.629 48.3728 273.057 44.9795 271.669 44.6928C269.407 44.2256 270.415 45.282 269.546 44.7172C268.677 44.1523 268.682 43.0751 269.508 41.5326C270.335 39.9901 274.023 40.1046 275.287 41.4652C276.55 42.826 275.657 46.4509 276.209 45.0795C276.761 43.7079 277.485 42.6472 278.372 41.9594C279.259 41.2718 280.73 40.9165 281.65 40.9057C282.57 40.8949 282.682 40.9438 283.108 41.0248C283.534 41.1058 283.934 41.2125 284.31 41.3598C284.306 41.3945 283.84 45.5818 282.9 45.3344C281.957 45.0861 282.312 45.2005 282.018 45.1635C281.725 45.1265 281.75 45.1055 281.047 45.1137C280.345 45.1219 279.07 45.5663 278.287 46.435C277.503 47.3035 276.979 48.2052 276.521 49.7318C276.391 50.165 276.237 50.6555 276.113 51.1547C278.38 51.2327 280.845 51.328 283.587 51.3822C283.147 47.0232 284.023 41.8453 286.224 41.3373C289.958 40.4757 289.18 40.472 289.743 41.2963C290.306 42.1206 289.65 43.4535 290.08 42.8539C290.51 42.2546 291.081 41.6347 291.592 41.2748C292.104 40.9149 292.764 40.7298 293.422 40.7221C294.079 40.7144 294.541 40.8708 294.974 41.1742C295.407 41.4777 295.211 42.4905 295.916 42.6039C296.62 42.7171 296.925 41.5662 297.507 41.2055C298.09 40.8448 298.704 40.6604 299.442 40.6518C300.18 40.6431 300.844 40.7971 301.343 41.1146C301.842 41.4323 302.218 41.9437 302.468 42.6332C302.719 43.3229 302.83 42.4453 302.864 45.3285C302.878 46.5417 303.425 48.6581 303.837 50.7807C306.583 50.5989 308.964 50.4218 310.652 50.3129C310.666 50.312 310.681 50.3109 310.695 50.31C309.869 50.0723 309.171 49.8001 308.528 49.4643C307.77 49.0686 307.178 48.5543 306.751 47.9223C306.324 47.2903 306.112 46.5044 306.101 45.5492C306.09 44.5938 306.348 43.7304 306.875 42.976C307.402 42.2217 308.184 41.6317 309.22 41.1898C310.257 40.748 311.563 40.5098 313.034 40.4926C314.505 40.4754 315.716 40.6536 316.787 41.0101C317.857 41.3666 318.643 41.7092 319.578 42.3725C320.513 43.0359 318.606 45.7629 317.701 45.2162C316.796 44.6685 316.307 44.4939 315.536 44.2553C314.764 44.0165 313.989 43.8946 313.211 43.9037C312.432 43.9128 311.847 44.0309 311.47 44.2426C311.094 44.4543 310.916 44.8305 310.92 45.1742C310.924 45.5178 311.017 45.6884 311.216 45.8832C311.416 46.0781 311.797 46.2761 312.345 46.4769C312.894 46.6778 313.701 46.9214 314.751 47.2074C315.801 47.4934 316.699 47.8166 317.477 48.1918C318.255 48.5669 318.868 49.0801 319.3 49.7172L319.301 49.7182C321.867 49.5281 324.077 49.3479 325.227 49.2143C327.505 48.9496 329.985 48.2054 332.374 47.5678C333.604 47.2392 334.882 46.9086 336.183 46.601C333.796 44.2225 326.413 45.127 326.873 42.5717C327.417 39.5433 326.362 41.4139 328.986 38.9437C331.42 36.654 339.176 42.1259 340.836 45.6605C341.067 45.6232 341.297 45.584 341.528 45.5502C346.077 44.8831 348.311 44.9068 350.694 44.4506C353.77 43.8617 357.458 43.8081 360.407 43.3519C360.848 43.2838 361.303 43.1984 361.769 43.1059C362.006 39.4596 362.533 36.3655 363.412 34.4301C365.69 29.4088 373.866 26.4519 382.04 25.0258C390.213 23.5997 390.138 23.6131 394.03 22.7016C397.922 21.7901 402.427 21.7963 402.837 22.8617C403.24 23.9122 404.135 22.166 401.982 27.3295C405.195 26.98 408.359 27.1018 411.141 27.5209C412.13 24.8536 413.349 22.7484 414.68 21.3529ZM164.372 137.094C164.335 136.951 163.081 137.207 161.406 137.656C159.731 138.105 160.721 137.228 158.495 138.435C156.268 139.642 157.465 143.61 156.551 148.203C155.85 151.728 155.079 155.642 154.754 157.312C156.758 154.284 159.293 152.136 160.781 149.998C162.311 147.801 162.892 145.511 164.172 142.947C164.5 142.291 164.823 141.651 165.142 141.025C165.137 140.998 165.132 140.971 165.127 140.945C164.742 138.949 164.409 137.24 164.372 137.094ZM492.16 136.269C492.547 136.92 492.938 137.606 493.34 138.337C495.41 142.105 496.133 147.318 497.513 152.143C497.516 151.949 497.52 151.75 497.52 151.548C497.52 147.21 497.03 143.92 495.971 140.814C494.925 137.742 493.885 136.3 492.16 136.269ZM291.314 44.6908C291.049 44.8393 292.03 43.4891 290.444 45.5199C289.695 46.4802 290.341 48.945 290.922 51.391C291.313 51.3832 291.706 51.3732 292.099 51.3627C292.437 49.2232 292.935 47.0803 292.922 45.9916C292.893 43.4879 292.85 45.026 292.741 44.7953C292.632 44.564 292.388 44.4501 292.1 44.4535C291.812 44.4569 291.58 44.5411 291.314 44.6908ZM258.181 44.6684C257.201 44.6798 256.472 45.0976 256.011 45.9066C255.551 46.7159 255.337 47.9726 255.358 49.7367C255.364 50.2851 255.395 50.7888 255.445 51.2465C257.061 51.195 258.943 51.1406 261.071 51.1C261.108 50.6533 261.127 50.1656 261.121 49.6391C261.1 47.87 260.843 46.6344 260.364 45.8412C259.884 45.048 259.162 44.6569 258.181 44.6684ZM297.153 44.6225C296.887 44.7714 297.869 43.4204 296.283 45.4516C295.555 46.3845 296.126 48.7855 296.681 51.1918C297.099 51.1723 297.515 51.1523 297.928 51.1312C298.277 49.0518 298.773 46.9954 298.76 45.9232C298.731 43.4195 298.689 44.9578 298.58 44.7269C298.471 44.4956 298.227 44.3818 297.939 44.3851C297.651 44.3885 297.419 44.4727 297.153 44.6225Z" stroke="#34399E" stroke-width="36" mask="url(#path-2-outside-1_2404_336)"/>
<path d="M402.837 22.8616C403.104 23.5574 402.677 25.671 401.889 27.5563C398.131 36.5522 399.055 52.8289 404.388 71.5525C407.118 81.1354 407.355 83.0236 406.806 90.7669C406.059 101.292 404.429 105.488 400.249 107.65C397.404 109.12 394.259 109.22 369.319 108.632C342.743 108.007 333.762 107.432 314.347 105.119C309.537 104.546 295.762 104.039 283.737 103.991C262.46 103.907 261.713 103.971 255.916 106.365C247.729 109.748 239.145 115.77 233.781 121.896C231.039 125.028 226.437 132.731 222.001 141.612C214.744 156.144 214.722 156.214 214.733 164.016C214.748 175.534 217.419 180.432 227.196 186.879C236.62 193.092 238.544 192.999 242.215 186.151C245.197 180.585 248.754 167.886 248.754 162.805C248.754 156.821 246.43 153.138 240.564 149.827C235.727 147.097 235.15 146.434 235.15 143.606C235.15 136.735 243.031 129.465 250.479 129.465C256.238 129.465 266.273 134.406 272.319 140.219C276.836 144.561 276.935 144.784 276.935 150.579C276.935 161.485 270.482 184.989 265.075 193.777C260.702 200.884 257.512 210.623 257.491 216.927C257.482 219.866 257.206 223.273 256.877 224.497C255.671 228.999 246.277 231.13 240.98 228.102C239.474 227.241 235.718 226.7 231.094 226.679C223.867 226.646 223.567 226.549 221.376 223.576C215.184 215.169 203.878 205.998 198.224 204.794C193.744 203.84 187.002 198.273 184.583 193.533C183.347 191.111 181.268 189.037 178.82 187.789C172.646 184.639 172.289 177.997 177.827 169.309C179.36 166.903 181.983 161.874 183.654 158.133C185.327 154.391 187.539 149.462 188.57 147.18C189.601 144.897 194.272 137.869 198.95 131.562C207.06 120.627 209.499 116.496 215.188 104.064C217.832 98.2866 226.834 86.3364 232.358 81.2705C237.435 76.6156 241.728 74.4144 251.198 71.6137C262.279 68.3368 275.783 67.6303 296.856 69.226C305.407 69.8742 313.934 70.3931 315.805 70.3805C317.675 70.3669 322.923 70.9723 327.465 71.7254C338.414 73.5398 359.489 73.5719 361.943 71.777C363.624 70.5476 363.672 69.8762 362.613 62.302C360.868 49.8124 361.167 39.3772 363.412 34.4298C365.725 29.3347 370.149 27.1005 382.039 25.0257C386.496 24.2483 391.892 23.2017 394.03 22.7012C399.676 21.3786 402.286 21.4262 402.837 22.8616Z" fill="#F9F7FC"/>
<path fill-rule="evenodd" clip-rule="evenodd" d="M305.432 117.222C321.043 120.896 324.258 131.237 323.286 174.653C322.744 198.895 321.743 206.938 318.659 211.825C317.501 213.66 316.423 214.011 311.926 214.011C304.768 214.011 269.147 216.821 268.101 217.467C266.558 218.42 265.937 212.689 267.101 208.238C267.737 205.801 269.788 200.685 271.656 196.869C278.288 183.327 284.803 158.463 284.886 146.39C284.928 140.009 283.06 135.056 279.502 132.121C278.357 131.176 274.472 128.771 270.868 126.776C267.048 124.661 264.313 122.502 264.309 121.598C264.3 119.546 267.112 117.116 270.133 116.566C275.94 115.51 300.057 115.958 305.432 117.222ZM300.257 164.778C300.257 163.598 300.695 161.479 301.231 160.069C301.868 158.394 302.795 157.62 303.904 157.835C305.422 158.13 305.601 159.594 305.601 171.755C305.601 188.357 305.146 190.241 300.625 192.397C297.328 193.97 297.094 193.965 295.87 192.292C294.406 190.289 294.478 189.708 297.815 176.55C299.158 171.256 300.257 165.958 300.257 164.778Z" fill="#F9F7FC"/>
<path fill-rule="evenodd" clip-rule="evenodd" d="M358.718 120.338C369.998 121.131 369.568 120.088 370.004 147.736C370.825 199.821 370.676 206.088 368.416 214.425C367.267 218.661 365.605 222.925 364.723 223.9C362.897 225.918 357.943 226.225 352.724 224.645C350.857 224.079 346.572 223.202 343.2 222.697C329.406 220.628 323.715 214.431 327.999 206.145C329.259 203.708 329.505 198.469 329.513 173.882C329.518 157.737 329.099 139.76 328.581 133.932C328.064 128.105 327.88 122.711 328.174 121.946C329.405 118.738 333.174 118.54 358.718 120.338ZM345.44 190.338C344.676 186.972 346.513 161.295 347.731 158.305C348.453 156.533 349.436 155.675 350.505 155.881C351.98 156.165 352.182 158.034 352.35 172.969C352.512 187.332 352.307 190.024 350.925 191.73C348.988 194.123 346.135 193.399 345.44 190.338Z" fill="#F9F7FC"/>
<path fill-rule="evenodd" clip-rule="evenodd" d="M423.156 20.0638C427.015 21.6769 429.672 26.259 431.368 34.2287C434.685 49.8095 437.299 133.765 435.288 160.076C434.756 167.025 433.941 184.736 433.477 199.434C432.634 226.064 431.767 232.983 428.917 235.833C427.022 237.728 426.975 237.723 421.724 235.068C418.965 233.673 416.741 231.652 415.697 229.593L414.041 226.329L395.29 226.154C384.976 226.058 376.24 225.91 375.875 225.826C374.321 225.467 374.161 221.684 375.484 216.6C377.467 208.986 378.489 185.03 377.189 176.597C375.335 164.561 374.658 140.979 376.046 136.775C377.567 132.162 384.203 124.773 388.411 123.004C390.326 122.2 395.262 121.69 401.153 121.69H410.77L413.275 116.103C417.173 107.41 418.081 101.913 417.362 91.382C416.697 81.667 416.164 79.0684 411.106 60.9531C406.043 42.8203 407.281 29.1112 414.68 21.3523C417.596 18.2951 418.569 18.1474 423.156 20.0638ZM401.482 162.105C400.063 155.801 400.581 150.748 402.881 148.448C404.6 146.729 407.452 147.781 409.021 150.712C415.179 162.219 415.739 193.118 409.904 199.382C408.005 201.42 405.551 201.912 403.665 200.634C402.975 200.166 402.64 194.406 402.694 183.885C402.745 173.769 402.298 165.73 401.482 162.105Z" fill="#F9F7FC"/>
<path d="M459.927 122.756C465.387 125.244 466.902 136.327 464.051 152.904C461.71 166.521 461.451 171.438 461.226 206.723C460.989 243.58 460.793 245.022 455.626 247.919C453.279 249.235 452.447 249.092 444.571 246.029L436.055 242.715L436.609 234.923C436.915 230.637 437.821 222.32 438.624 216.441C439.631 209.069 440.232 193.564 440.56 166.489C441.084 123.273 440.765 125.35 447.264 122.979C451.304 121.505 456.962 121.406 459.927 122.756Z" fill="#F9F7FC"/>
<path fill-rule="evenodd" clip-rule="evenodd" d="M505.203 111.874C506.65 113.423 509.182 117.25 510.829 120.378C513.608 125.653 513.869 127.01 514.438 139.183C514.775 146.398 515.299 154.301 515.601 156.745C516.868 166.979 512.462 173.713 500.242 180.214C495.945 182.501 491.674 185.329 490.751 186.499C489.504 188.08 488.904 191.421 488.413 199.511C488.049 205.498 487.96 210.606 488.216 210.861C488.47 211.115 491.214 208.927 494.314 205.996C497.413 203.066 501.699 199.563 503.836 198.214C505.974 196.864 509.208 194.413 511.022 192.768C514.619 189.507 515.983 189.582 515.983 193.039C515.983 195.231 520.073 202.189 522.131 203.499C522.705 203.864 523.174 205.71 523.174 207.602C523.174 211.808 520.083 215.467 514.353 218.045C512.121 219.049 508.888 221.646 507.169 223.815C497.326 236.245 476.475 243.586 469.846 236.957C466.974 234.085 466.799 232.887 465.572 207.695C464.531 186.324 465.118 173.856 467.838 159.517C468.664 155.163 469.34 147.768 469.34 143.082C469.34 132.244 470.395 129.844 479.245 120.552C488.063 111.293 491.671 109.066 497.859 109.061C501.807 109.058 502.997 109.514 505.203 111.874ZM488.332 151.573C488.643 145.561 489.096 139.656 489.34 138.454C489.651 136.92 490.477 136.267 492.103 136.267C493.997 136.267 494.707 137.102 495.971 140.813C496.823 143.314 497.52 148.145 497.52 151.548C497.52 156.822 497.168 158.087 495.134 160.12C493.823 161.432 491.628 162.506 490.259 162.506H487.768L488.332 151.573Z" fill="#F9F7FC"/>
<path d="M459.994 92.4928C463.978 94.0078 465.594 97.5131 465.634 104.73C465.665 110.103 465.314 111.569 463.582 113.293C461.736 115.131 460.521 115.351 453.187 115.182C448.619 115.076 444.319 114.522 443.63 113.951C442.134 112.708 440.789 100.668 441.729 96.9232C442.152 95.2332 443.487 93.7998 445.42 92.9583C448.973 91.4121 456.517 91.1711 459.994 92.4928Z" fill="#F9F7FC"/>
<path fill-rule="evenodd" clip-rule="evenodd" d="M199.067 69.3191C197.694 70.1257 196.824 71.1781 194.659 74.6486C192.757 77.6982 192.539 78.133 192.802 78.3473C193.381 78.8185 213.85 91.55 213.976 91.5164C214.046 91.4977 215.102 89.8717 216.323 87.9032C218.308 84.7023 218.572 84.1736 218.822 82.9006C219.428 79.8232 218.544 77.0741 216.336 75.1679C215.043 74.0518 206.808 68.9902 205.656 68.6039C203.667 67.9366 200.911 68.2356 199.067 69.3191ZM184.535 90.8592C174.916 106.288 169.479 114.998 164.171 123.481C161.447 127.835 158.619 132.406 157.886 133.639L156.555 135.88L153.373 151.711C151.624 160.417 150.233 167.694 150.283 167.881C150.409 168.349 151.574 168.988 152.067 168.858C152.559 168.728 177.096 149.97 177.947 149.073C178.436 148.557 186.975 135.073 192.448 126.173C194.06 123.553 197.466 118.09 205.856 104.673C208.506 100.434 211.009 96.4159 211.417 95.7428L212.159 94.519L201.505 87.8697C195.646 84.2126 190.787 81.2118 190.709 81.2014C190.631 81.191 187.853 85.537 184.535 90.8592ZM164.372 137.094C164.402 137.214 164.742 138.946 165.127 140.944C165.512 142.942 165.841 144.636 165.859 144.708C165.877 144.78 167.656 144.366 169.813 143.788L173.735 142.737L173.77 143.241C173.789 143.517 174.03 144.793 174.305 146.076C174.6 147.449 174.742 148.494 174.652 148.616C174.533 148.778 163.382 157.377 159.397 160.38L158.661 160.934L158.464 160.198C158.355 159.793 158.056 159.225 157.8 158.937C157.248 158.315 155.976 157.939 155.155 158.155C154.836 158.239 154.583 158.231 154.592 158.138C154.601 158.045 155.483 153.574 156.552 148.202L158.495 138.435L161.405 137.655C163.619 137.062 164.329 136.928 164.372 137.094Z" fill="#979CFF"/>
<path d="M220.541 36.254L223.053 40.1685L211.682 47.1761L223.212 53.7711L220.723 57.8888L206.914 49.2942L206.866 45.2062L220.541 36.254Z" fill="#FF9E24"/>
<path d="M340.719 35.833L354.599 44.4267L354.648 48.5509L341.008 57.4665L338.46 53.5886L349.796 46.5453L338.301 39.986L340.719 35.833Z" fill="#FF9E24"/>
<path d="M237.834 38.2958L237.908 44.6677L246.346 44.569L246.394 48.6491L237.956 48.7478L238.067 58.297L232.355 58.3638L232.074 34.2999L247.891 34.1149L247.348 38.1845L237.834 38.2958ZM259.621 38.9961C261.519 38.9739 263.138 39.3601 264.479 40.1548C265.819 40.9494 266.851 42.0776 267.575 43.5394C268.298 44.9895 268.671 46.6985 268.694 48.6662C268.718 50.7149 268.38 52.4843 267.679 53.9742C266.99 55.4525 265.985 56.5929 264.663 57.3956C263.341 58.1982 261.737 58.6106 259.85 58.6326C257.975 58.6546 256.362 58.2856 255.01 57.5258C253.67 56.7659 252.632 55.6551 251.897 54.1935C251.174 52.7318 250.801 50.9708 250.776 48.9104C250.754 46.9543 251.087 45.2371 251.775 43.7589C252.476 42.2805 253.487 41.1226 254.808 40.2852C256.141 39.4477 257.746 39.018 259.621 38.9961ZM259.668 43.0415C258.545 43.0546 257.717 43.5273 257.184 44.4597C256.662 45.3803 256.413 46.8418 256.437 48.8443C256.46 50.8814 256.744 52.3541 257.287 53.2623C257.842 54.1703 258.68 54.6178 259.803 54.6046C260.926 54.5915 261.748 54.1246 262.27 53.204C262.803 52.2832 263.058 50.7927 263.034 48.7324C263.01 46.7415 262.721 45.2921 262.167 44.384C261.624 43.4758 260.791 43.0283 259.668 43.0415ZM272.851 57.8902L272.808 54.2094L275.239 54.181L275.109 43.0693L272.678 43.0977L272.636 39.4516L279.251 39.3743L280.306 43.512C280.947 41.9186 281.773 40.7282 282.782 39.9407C283.803 39.1532 285.055 38.7507 286.536 38.7334C287.161 38.7261 287.718 38.7717 288.205 38.8702C288.692 38.9571 289.151 39.0849 289.581 39.2535L287.967 43.8045C287.631 43.7158 287.294 43.6503 286.958 43.6079C286.622 43.5655 286.251 43.5467 285.846 43.5514C284.642 43.5655 283.589 44.0698 282.686 45.0644C281.795 46.0588 281.121 47.3169 280.664 48.8388L280.725 54.1169L284.372 54.0742L284.415 57.755L272.851 57.8902ZM285.209 47.0144L285.146 41.6322L285.935 39.2961L289.581 39.2535L288.647 46.9742L285.209 47.0144ZM306.905 38.4431C307.785 38.4328 308.511 38.6096 309.082 38.9733C309.654 39.3371 310.083 39.9167 310.37 40.7121C310.657 41.4959 310.808 42.5244 310.823 43.7977L310.982 57.4443L306.277 57.4993L306.125 44.4777C306.117 43.8295 306.048 43.3731 305.918 43.1083C305.799 42.8435 305.554 42.7132 305.184 42.7175C304.895 42.7209 304.595 42.8113 304.284 42.9885C303.985 43.1541 303.653 43.4705 303.288 43.9379L303.447 57.5324L299.593 57.5775L299.441 44.5559C299.433 43.9077 299.364 43.4512 299.234 43.1865C299.115 42.9217 298.87 42.7914 298.5 42.7957C298.21 42.7991 297.91 42.8894 297.6 43.0667C297.301 43.2323 296.969 43.5487 296.604 44.016L296.763 57.6106L291.988 57.6664L291.773 39.2278L295.801 39.1807L296.186 40.9648C296.756 40.1709 297.333 39.568 297.919 39.156C298.504 38.7439 299.202 38.5332 300.013 38.5237C300.707 38.5156 301.299 38.6881 301.79 39.0412C302.292 39.3827 302.651 39.9283 302.868 40.6783C303.416 40.0236 304.023 39.4897 304.69 39.0768C305.357 38.6638 306.095 38.4526 306.905 38.4431ZM321.677 53.9853C322.591 53.9746 323.325 53.8213 323.877 53.5254C324.441 53.2294 324.719 52.792 324.712 52.2133C324.708 51.8198 324.594 51.4912 324.371 51.2275C324.148 50.9639 323.723 50.7142 323.095 50.4784C322.467 50.2426 321.537 49.9641 320.307 49.6428C319.18 49.355 318.18 48.9846 317.307 48.5318C316.445 48.0788 315.767 47.4906 315.272 46.7671C314.789 46.0434 314.541 45.1376 314.528 44.0495C314.515 42.9499 314.811 41.9683 315.414 41.1046C316.018 40.2409 316.913 39.559 318.099 39.0589C319.285 38.5472 320.741 38.2813 322.466 38.2612C324.109 38.2419 325.541 38.4393 326.762 38.8534C327.993 39.2557 329.059 39.7758 329.957 40.4136L327.808 43.6685C327.038 43.2029 326.212 42.8363 325.329 42.5688C324.446 42.2897 323.559 42.1554 322.668 42.1658C321.776 42.1762 321.112 42.3055 320.675 42.5538C320.25 42.7903 320.04 43.1458 320.045 43.6204C320.049 43.9329 320.162 44.2036 320.385 44.4325C320.619 44.6497 321.05 44.8762 321.677 45.112C322.305 45.3362 323.223 45.6148 324.431 45.948C325.627 46.2697 326.667 46.6454 327.552 47.0749C328.449 47.5043 329.144 48.0866 329.639 48.8217C330.134 49.5452 330.388 50.5089 330.402 51.7127C330.418 53.0553 330.032 54.1885 329.244 55.1123C328.456 56.0244 327.405 56.714 326.09 57.1808C324.776 57.6476 323.332 57.8903 321.758 57.9087C319.975 57.9295 318.398 57.6933 317.026 57.2C315.654 56.7067 314.483 56.0489 313.513 55.2268L316.237 52.104C316.961 52.6512 317.777 53.1047 318.684 53.4646C319.603 53.8243 320.601 53.9978 321.677 53.9853Z" fill="white"/>
</svg>
