<svg width="318" height="318" viewBox="0 0 318 318" fill="none" xmlns="http://www.w3.org/2000/svg">
<g clip-path="url(#clip0_2411_92)">
<path d="M30.1434 189.652C46.7911 189.652 60.2867 176.151 60.2867 159.497C60.2867 142.842 46.7911 129.342 30.1434 129.342C13.4957 129.342 0 142.842 0 159.497C0 176.151 13.4957 189.652 30.1434 189.652Z" fill="#00E7C3"/>
<path d="M47.6893 196.588C55.8619 211.587 69.3671 217.486 83.3944 217.486C105.903 217.486 133.477 179.633 151.136 148.994C173.994 109.305 199.383 69 236.135 69C264.231 69 292.327 86.4512 304.01 120.952C299.076 118.959 293.802 117.939 288.481 117.95C282.381 117.941 276.356 119.283 270.836 121.877C262.85 104.975 248.65 98.421 233.844 98.421C211.322 98.421 190.366 125.966 166.585 165.666C141.061 208.264 117.855 246.906 81.0912 246.906C53.9989 246.906 26.908 230.674 14.541 198.586C14.6887 198.627 14.89 198.667 15.1316 198.694C19.5681 200.26 24.2393 201.057 28.9441 201.052C35.6833 201.052 42.0614 199.444 47.6893 196.588Z" fill="#00E7C3"/>
<path d="M16.5244 119.84C28.3277 86.0768 55.9018 69 83.4745 69C119.945 69 143.967 105.967 171.127 142.734C191.572 170.438 214.509 207.191 236.858 207.191C250.404 207.191 254.437 204.402 264.298 193.291C271.348 198.347 279.807 201.061 288.482 201.052C293.331 201.052 297.994 200.22 302.334 198.692C302.764 198.679 303.1 198.652 303.328 198.585C291.04 230.674 260.867 248.367 233.99 248.367C197.521 248.367 173.015 211.936 147.331 175.599C120.682 137.882 100.733 109.466 78.397 108.716C68.2809 108.38 58.9969 114.519 51.7477 124.772C44.9802 120.31 37.0498 117.938 28.9438 117.95C24.6165 117.95 20.4503 118.608 16.5244 119.84Z" fill="#00E7C3"/>
<path d="M288.473 189.652C305.121 189.652 318.616 176.151 318.616 159.497C318.616 142.842 305.121 129.342 288.473 129.342C271.825 129.342 258.33 142.842 258.33 159.497C258.33 176.151 271.825 189.652 288.473 189.652Z" fill="#00E7C3"/>
</g>
<defs>
<clipPath id="clip0_2411_92">
<rect width="318" height="318" fill="white"/>
</clipPath>
</defs>
</svg>
