<svg width="318" height="318" viewBox="0 0 318 318" fill="none" xmlns="http://www.w3.org/2000/svg">
<path d="M264.561 120.945V124.17C264.561 125.025 264.901 125.846 265.506 126.45C266.11 127.055 266.931 127.395 267.786 127.395C268.641 127.395 269.461 127.055 270.066 126.45C270.671 125.846 271.011 125.025 271.011 124.17V120.945H264.561ZM251.662 120.945V124.17C251.662 125.025 252.002 125.846 252.606 126.45C253.211 127.055 254.031 127.395 254.887 127.395C255.742 127.395 256.562 127.055 257.167 126.45C257.772 125.846 258.111 125.025 258.111 124.17V120.945H251.662ZM238.763 120.945V124.17C238.763 125.025 239.103 125.846 239.707 126.45C240.312 127.055 241.132 127.395 241.988 127.395C242.843 127.395 243.663 127.055 244.268 126.45C244.873 125.846 245.212 125.025 245.212 124.17V120.945H238.763ZM225.864 120.945V124.17C225.864 125.025 226.203 125.846 226.808 126.45C227.413 127.055 228.233 127.395 229.088 127.395C229.944 127.395 230.764 127.055 231.369 126.45C231.973 125.846 232.313 125.025 232.313 124.17V120.945H225.864ZM258.111 142.444V139.219C258.111 138.364 258.451 137.544 259.056 136.939C259.661 136.334 260.481 135.994 261.336 135.994C262.192 135.994 263.012 136.334 263.617 136.939C264.221 137.544 264.561 138.364 264.561 139.219V142.444H258.111ZM245.212 142.444V139.219C245.212 138.364 245.552 137.544 246.157 136.939C246.762 136.334 247.582 135.994 248.437 135.994C249.292 135.994 250.113 136.334 250.717 136.939C251.322 137.544 251.662 138.364 251.662 139.219V142.444H245.212ZM232.313 142.444V139.219C232.313 138.364 232.653 137.544 233.258 136.939C233.862 136.334 234.683 135.994 235.538 135.994C236.393 135.994 237.213 136.334 237.818 136.939C238.423 137.544 238.763 138.364 238.763 139.219V142.444H232.313ZM219.414 142.444V139.219C219.414 138.364 219.754 137.544 220.359 136.939C220.963 136.334 221.784 135.994 222.639 135.994C223.494 135.994 224.314 136.334 224.919 136.939C225.524 137.544 225.864 138.364 225.864 139.219V142.444H219.414Z" fill="white"/>
<path d="M317.05 256.386L301.109 240.445V234.888C301.079 227.659 298.461 220.679 293.728 215.215C288.995 209.751 282.461 206.163 275.311 205.101V200.49H279.61C287.593 200.49 295.248 197.319 300.893 191.674C306.537 186.03 309.708 178.374 309.708 170.392V140.294C309.708 139.154 309.255 138.06 308.449 137.254C307.643 136.447 306.549 135.994 305.409 135.994C304.268 135.994 303.175 136.447 302.368 137.254C301.562 138.06 301.109 139.154 301.109 140.294V141.369C301.109 141.654 300.996 141.927 300.794 142.129C300.592 142.331 300.319 142.444 300.034 142.444C299.749 142.444 299.475 142.331 299.274 142.129C299.072 141.927 298.959 141.654 298.959 141.369V140.294C298.959 139.154 298.506 138.06 297.7 137.254C296.893 136.447 295.8 135.994 294.659 135.994C293.519 135.994 292.425 136.447 291.619 137.254C290.813 138.06 290.36 139.154 290.36 140.294V141.369C290.36 141.654 290.246 141.927 290.045 142.129C289.843 142.331 289.57 142.444 289.285 142.444C289 142.444 288.726 142.331 288.525 142.129C288.323 141.927 288.21 141.654 288.21 141.369V140.294C288.21 139.154 287.757 138.06 286.95 137.254C286.144 136.447 285.05 135.994 283.91 135.994C282.77 135.994 281.676 136.447 280.87 137.254C280.063 138.06 279.61 139.154 279.61 140.294V166.092C279.61 167.233 279.157 168.326 278.351 169.133C277.545 169.939 276.451 170.392 275.311 170.392V140.294H219.414C217.134 140.294 214.946 139.388 213.334 137.775C211.721 136.163 210.815 133.975 210.815 131.695C210.815 129.414 211.721 127.227 213.334 125.614C214.946 124.001 217.134 123.095 219.414 123.095H275.311V116.366C277.151 115.885 278.78 114.808 279.942 113.302C281.105 111.797 281.735 109.948 281.735 108.046C281.735 106.144 281.105 104.296 279.942 102.79C278.78 101.285 277.151 100.207 275.311 99.7262V88.6974L269.936 83.3228H203.29L197.916 88.6974V99.7262C196.075 100.207 194.447 101.285 193.284 102.79C192.122 104.296 191.491 106.144 191.491 108.046C191.491 109.948 192.122 111.797 193.284 113.302C194.447 114.808 196.075 115.885 197.916 116.366V170.392C196.775 170.392 195.682 169.939 194.875 169.133C194.069 168.326 193.616 167.233 193.616 166.092V140.294C193.616 139.154 193.163 138.06 192.357 137.254C191.55 136.447 190.457 135.994 189.316 135.994C188.176 135.994 187.082 136.447 186.276 137.254C185.47 138.06 185.017 139.154 185.017 140.294V141.369C185.017 141.654 184.903 141.927 184.702 142.129C184.5 142.331 184.227 142.444 183.942 142.444C183.657 142.444 183.383 142.331 183.182 142.129C182.98 141.927 182.867 141.654 182.867 141.369V140.294C182.867 139.154 182.414 138.06 181.607 137.254C180.801 136.447 179.707 135.994 178.567 135.994C177.427 135.994 176.333 136.447 175.527 137.254C174.72 138.06 174.267 139.154 174.267 140.294V141.369C174.267 141.654 174.154 141.927 173.953 142.129C173.751 142.331 173.478 142.444 173.192 142.444C172.907 142.444 172.634 142.331 172.432 142.129C172.231 141.927 172.117 141.654 172.117 141.369V140.294C172.117 139.154 171.664 138.06 170.858 137.254C170.052 136.447 168.958 135.994 167.818 135.994C166.677 135.994 165.584 136.447 164.777 137.254C163.971 138.06 163.518 139.154 163.518 140.294V170.392C163.518 178.374 166.689 186.03 172.334 191.674C177.978 197.319 185.634 200.49 193.616 200.49H197.916V217.689C197.916 218.829 197.463 219.923 196.656 220.729C195.85 221.535 194.756 221.988 193.616 221.988H176.417V268.028L192.358 252.086H197.916C203.614 252.097 209.197 250.485 214.013 247.44C218.829 244.394 222.679 240.04 225.111 234.888H266.711C267.852 234.888 268.945 235.341 269.752 236.147C270.558 236.953 271.011 238.047 271.011 239.187V256.386H317.05Z" fill="#E2CBB5"/>
<path d="M223.714 113.421C229.057 113.421 233.388 109.089 233.388 103.746C233.388 98.4034 229.057 94.072 223.714 94.072C218.371 94.072 214.04 98.4034 214.04 103.746C214.04 109.089 218.371 113.421 223.714 113.421Z" fill="white"/>
<path d="M223.714 109.121C226.682 109.121 229.089 106.715 229.089 103.746C229.089 100.778 226.682 98.3718 223.714 98.3718C220.746 98.3718 218.339 100.778 218.339 103.746C218.339 106.715 220.746 109.121 223.714 109.121Z" fill="#9FA628"/>
<path d="M249.512 113.421C254.855 113.421 259.187 109.089 259.187 103.746C259.187 98.4034 254.855 94.072 249.512 94.072C244.169 94.072 239.838 98.4034 239.838 103.746C239.838 109.089 244.169 113.421 249.512 113.421Z" fill="white"/>
<path d="M249.512 109.121C252.481 109.121 254.887 106.715 254.887 103.746C254.887 100.778 252.481 98.3718 249.512 98.3718C246.544 98.3718 244.138 100.778 244.138 103.746C244.138 106.715 246.544 109.121 249.512 109.121Z" fill="#9FA628"/>
<path d="M197.916 84.3976C197.916 68.005 207.321 58.5994 223.714 58.5994H249.512C265.905 58.5994 275.31 68.005 275.31 84.3976V88.6974C273.429 88.6974 272.752 87.6224 272.086 86.5475C271.419 85.4726 270.742 84.3976 268.861 84.3976C266.98 84.3976 266.302 85.4726 265.636 86.5475C264.97 87.6224 264.292 88.6974 262.411 88.6974C260.53 88.6974 259.853 87.6224 259.186 86.5475C258.52 85.4726 257.843 84.3976 255.962 84.3976C254.081 84.3976 253.403 85.4726 252.737 86.5475C252.07 87.6224 251.393 88.6974 249.512 88.6974C247.631 88.6974 246.954 87.6224 246.287 86.5475C245.621 85.4726 244.944 84.3976 243.063 84.3976C241.181 84.3976 240.504 85.4726 239.838 86.5475C239.171 87.6224 238.494 88.6974 236.613 88.6974C234.732 88.6974 234.055 87.6224 233.388 86.5475C232.722 85.4726 232.044 84.3976 230.163 84.3976C228.282 84.3976 227.605 85.4726 226.939 86.5475C226.272 87.6224 225.595 88.6974 223.714 88.6974C221.833 88.6974 221.155 87.6224 220.489 86.5475C219.823 85.4726 219.145 84.3976 217.264 84.3976C215.383 84.3976 214.706 85.4726 214.039 86.5475C213.373 87.6224 212.696 88.6974 210.815 88.6974C208.934 88.6974 208.256 87.6224 207.59 86.5475C206.923 85.4726 206.246 84.3976 204.365 84.3976C202.484 84.3976 201.807 85.4726 201.14 86.5475C200.474 87.6224 199.797 88.6974 197.916 88.6974V84.3976Z" fill="#BF6C35"/>
<path d="M99.0226 140.294L94.7229 131.695L90.4232 140.294L94.7229 142.444L99.0226 140.294ZM86.1235 140.294L81.8238 131.695L77.5241 140.294L81.8238 142.444L86.1235 140.294ZM73.2244 140.294L68.9246 131.695L64.6249 140.294L68.9246 142.444L73.2244 140.294ZM60.3252 140.294L56.0255 131.695L51.7258 140.294L56.0255 142.444L60.3252 140.294ZM47.4261 140.294L43.1264 131.695L38.8267 140.294L43.1264 142.444L47.4261 140.294ZM92.5731 123.095L88.2734 131.695L83.9736 123.095L88.2734 120.945L92.5731 123.095ZM79.6739 123.095L75.3742 131.695L71.0745 123.095L75.3742 120.945L79.6739 123.095ZM66.7748 123.095L62.4751 131.695L58.1754 123.095L62.4751 120.945L66.7748 123.095ZM53.8757 123.095L49.5759 131.695L45.2762 123.095L49.5759 120.945L53.8757 123.095Z" fill="white"/>
<path d="M25.9273 212.744L0 198.34L25.9273 183.936V212.744Z" fill="#E2CBB5"/>
<path d="M25.9273 191.246L0 176.842L25.9273 162.438V191.246Z" fill="#E2CBB5"/>
<path d="M25.9273 169.747L0 155.343L25.9273 140.939V169.747Z" fill="#E2CBB5"/>
<path d="M25.9273 148.249L0 133.844L25.9273 119.44V148.249Z" fill="#E2CBB5"/>
<path d="M43.1263 140.294C40.8456 140.294 38.6583 139.388 37.0456 137.775C35.4329 136.163 34.5268 133.975 34.5268 131.695C34.5268 129.414 35.4329 127.227 37.0456 125.614C38.6583 124.001 40.8456 123.095 43.1263 123.095H99.0225V84.3977C99.0225 77.1419 97.1737 71.2621 93.6479 66.9624L99.3343 61.276C101.185 62.3871 103.314 62.9499 105.472 62.8991C106.042 62.8991 106.589 62.6726 106.992 62.2695C107.395 61.8663 107.622 61.3195 107.622 60.7493C107.622 60.1791 107.395 59.6323 106.992 59.2291C106.589 58.8259 106.042 58.5994 105.472 58.5994C101.377 58.5994 99.0225 56.2453 99.0225 52.1499C99.0225 51.5797 98.796 51.0329 98.3929 50.6297C97.9897 50.2265 97.4429 50 96.8727 50C96.3025 50 95.7557 50.2265 95.3525 50.6297C94.9493 51.0329 94.7228 51.5797 94.7228 52.1499C94.6822 54.29 95.2447 56.3984 96.346 58.2339L90.6596 63.9741C86.3599 60.4483 80.48 58.5994 73.2243 58.5994H47.426C40.1702 58.5994 34.2904 60.4483 29.9907 63.9741L24.3043 58.2877C25.4154 56.4366 25.9782 54.3082 25.9274 52.1499C25.9274 51.5797 25.7009 51.0329 25.2977 50.6297C24.8946 50.2265 24.3477 50 23.7776 50C23.2074 50 22.6606 50.2265 22.2574 50.6297C21.8542 51.0329 21.6277 51.5797 21.6277 52.1499C21.6277 56.2453 19.2736 58.5994 15.1781 58.5994C14.608 58.5994 14.0611 58.8259 13.658 59.2291C13.2548 59.6323 13.0283 60.1791 13.0283 60.7493C13.0283 61.3195 13.2548 61.8663 13.658 62.2695C14.0611 62.6726 14.608 62.8991 15.1781 62.8991C17.3183 62.9398 19.4267 62.3773 21.2622 61.276L27.0024 66.9624C23.4766 71.2621 21.6277 77.1419 21.6277 84.3977V217.689C21.6277 218.829 21.1747 219.923 20.3684 220.729C19.562 221.535 18.4684 221.988 17.328 221.988H0.12915V268.028L16.0703 252.086H21.6277C27.3259 252.097 32.9094 250.485 37.7253 247.44C42.5413 244.394 46.3906 240.04 48.8234 234.888H90.4231C91.5635 234.888 92.6571 235.341 93.4635 236.147C94.2698 236.953 94.7228 238.047 94.7228 239.187V256.386H140.762L124.821 240.445V234.888C124.791 227.659 122.173 220.679 117.44 215.215C112.707 209.751 106.173 206.163 99.0225 205.101V204.79H154.596L142.149 194.825L157.413 189.741L142.149 184.656L154.596 174.692H99.0225V170.392H154.596L142.149 160.427L157.413 155.343L142.149 150.259L154.596 140.294H43.1263Z" fill="#9FA628"/>
<path d="M47.4261 113.421C52.7691 113.421 57.1004 109.089 57.1004 103.746C57.1004 98.4034 52.7691 94.072 47.4261 94.072C42.0831 94.072 37.7517 98.4034 37.7517 103.746C37.7517 109.089 42.0831 113.421 47.4261 113.421Z" fill="white"/>
<path d="M47.4259 109.121C50.3942 109.121 52.8006 106.715 52.8006 103.746C52.8006 100.778 50.3942 98.3718 47.4259 98.3718C44.4576 98.3718 42.0513 100.778 42.0513 103.746C42.0513 106.715 44.4576 109.121 47.4259 109.121Z" fill="#BF6C35"/>
<path d="M73.2242 113.421C78.5672 113.421 82.8985 109.089 82.8985 103.746C82.8985 98.4034 78.5672 94.072 73.2242 94.072C67.8812 94.072 63.5498 98.4034 63.5498 103.746C63.5498 109.089 67.8812 113.421 73.2242 113.421Z" fill="white"/>
<path d="M73.2242 109.121C76.1926 109.121 78.5989 106.715 78.5989 103.746C78.5989 100.778 76.1926 98.3718 73.2242 98.3718C70.2559 98.3718 67.8496 100.778 67.8496 103.746C67.8496 106.715 70.2559 109.121 73.2242 109.121Z" fill="#BF6C35"/>
</svg>
