<svg width="112" height="24" viewBox="0 0 112 24" fill="none" xmlns="http://www.w3.org/2000/svg">
<path fill-rule="evenodd" clip-rule="evenodd" d="M27.5658 18.0487C28.3162 18.4257 29.0359 18.5179 31.2104 18.5158C33.1212 18.514 33.3787 18.4908 33.4011 18.3184C33.4505 17.9395 33.4218 5.60212 33.3714 5.55687C33.3433 5.53164 32.3127 5.51441 31.0812 5.51858C29.0788 5.52536 28.766 5.55412 28.1215 5.79072C26.5635 6.36266 25.5732 7.49202 25.3361 8.96742C25.1973 9.83127 25.2362 14.7785 25.3866 15.3831C25.6463 16.4274 26.5576 17.5421 27.5658 18.0487ZM41.3713 18.5122C51.0371 18.5012 56.4958 18.4979 61.8159 18.5003C64.5465 18.5014 67.404 18.4888 68.1661 18.4722L69.5517 18.442L77.5848 15.5283C82.0028 13.9257 85.675 12.5554 85.7451 12.4829C85.9209 12.3015 85.8804 11.6223 85.6832 11.4438C85.4858 11.2651 70.1152 5.70493 69.4708 5.57916C69.1009 5.50686 60.6156 5.45919 55.061 5.49805C53.426 5.50945 50.0035 5.51292 41.5906 5.5117C38.933 5.51133 36.4162 5.51545 35.9978 5.52091L35.2369 5.5308L35.2415 11.9582C35.244 15.4933 35.2602 18.4157 35.2775 18.4524C35.2948 18.4891 38.0371 18.5161 41.3713 18.5122ZM67.896 14.7205C67.9415 14.6746 68.6268 14.0571 69.4191 13.3481C70.2115 12.6391 70.8821 12.0366 70.9096 12.0093C70.9372 11.982 70.2491 11.322 69.3807 10.5427L67.8017 9.12563L68.0188 8.97408C68.1382 8.8907 68.6455 8.44015 69.1461 7.97281C69.682 7.47261 70.1129 7.12714 70.1935 7.13292C70.3 7.14067 77.319 9.64766 79.7954 10.5624L80.2527 10.7314L79.9764 11.0169C79.8244 11.1739 79.6528 11.4574 79.595 11.647C79.4704 12.0553 79.6592 12.709 79.9878 13.0069C80.1155 13.1226 80.1834 13.2347 80.1388 13.2559C80.0943 13.2771 77.8302 14.1073 75.1074 15.1007L70.1568 16.9069L68.9851 15.8554C68.0938 15.0555 67.8331 14.7838 67.896 14.7205Z" fill="#979CFF"/>
<path d="M24.9298 22.9105C22.4932 21.6862 20.4982 19.2817 19.8463 16.6599C19.7054 16.0934 19.666 15.5246 19.6547 15.3798C19.6323 15.0928 19.616 14.7738 19.6033 14.4594C19.5777 13.8235 19.5621 13.0615 19.5562 12.314C19.5503 11.5651 19.5537 10.791 19.5688 10.1292C19.5789 9.68545 19.5977 8.97761 19.6712 8.37817L19.7064 8.12889L19.7347 7.96098C20.3629 4.45044 22.8485 1.85692 26.0918 0.666367C27.8617 0.016626 29.2222 0.0407281 31.0612 0.0345015C31.7047 0.0323217 32.3113 0.0356964 32.7763 0.0434686C33.0021 0.0472426 33.2312 0.0526652 33.4264 0.0609741C33.513 0.0646565 33.662 0.0715532 33.8249 0.0856373C33.8852 0.0908532 34.0367 0.104923 34.227 0.133359C34.5303 0.0811084 34.8419 0.0513869 35.1599 0.0472475L35.9209 0.0371612C36.3904 0.0310472 38.9603 0.0272318 41.5914 0.0275995C50.0153 0.0288255 53.4111 0.0252366 55.0196 0.0140183C57.8275 -0.0056227 61.3633 -0.00333104 64.2436 0.0128703C65.6832 0.0209682 66.9728 0.0325835 67.9333 0.0470058C68.4104 0.0541681 68.8264 0.0624382 69.1464 0.0718043C69.3029 0.0763865 69.4655 0.0819131 69.6129 0.0894913C69.6845 0.0931767 69.7844 0.098927 69.8939 0.107865C69.9276 0.11061 70.2375 0.133471 70.6027 0.204742C71.0647 0.29491 71.5431 0.456268 71.5645 0.463159C71.7586 0.525676 71.9926 0.60415 72.2458 0.690471C72.7577 0.864959 73.4348 1.10109 74.2092 1.37447C75.7628 1.92288 77.7659 2.6407 79.7484 3.35784C81.7306 4.07489 83.7065 4.79633 85.205 5.35202C85.9512 5.6287 86.5962 5.87085 87.0697 6.05294C87.3014 6.14205 87.5227 6.2285 87.7042 6.30279C87.7885 6.33731 87.9124 6.38878 88.0417 6.4472C88.101 6.47397 88.221 6.52904 88.3634 6.60285C88.4333 6.63907 88.5595 6.70572 88.7107 6.7973C88.8002 6.85154 89.1757 7.07799 89.585 7.44852C90.7147 8.47163 91.1203 9.6441 91.2536 10.0683C91.4358 10.6484 91.5144 11.194 91.5415 11.6481C91.5684 12.0994 91.5565 12.6615 91.4373 13.2757C91.3579 13.6854 91.0878 14.9446 90.0182 16.1101L89.9121 16.2224L89.8156 16.3198C89.3343 16.7921 88.8787 17.0637 88.8215 17.0991C88.6523 17.2039 88.5119 17.2789 88.4413 17.3157C88.294 17.3925 88.1703 17.4491 88.1146 17.4743C87.9891 17.5311 87.8694 17.5811 87.7907 17.6134C87.6191 17.6839 87.4085 17.7666 87.1858 17.8527C86.7305 18.0289 86.1015 18.2663 85.3543 18.5451C83.8541 19.105 81.814 19.8546 79.5933 20.6602L71.5601 23.5739L71.4472 23.6138C70.8794 23.8066 70.2832 23.9117 69.6808 23.9248L68.2951 23.9549C67.4538 23.9732 64.5242 23.9856 61.8133 23.9845C56.4979 23.9822 51.0428 23.9853 41.378 23.9964C39.6961 23.9983 38.1544 23.9925 37.0224 23.9814C36.4606 23.9759 35.9782 23.9689 35.6233 23.9602C35.454 23.9561 35.2694 23.9505 35.1061 23.9422C35.0389 23.9388 34.8885 23.9307 34.7163 23.9133C34.6595 23.9075 34.4792 23.8885 34.2483 23.8472C33.8934 23.9133 33.6352 23.9333 33.5451 23.9414C32.9137 23.9983 32.057 23.9992 31.216 24L30.4398 23.9981C28.628 23.9823 26.8089 23.8545 24.9298 22.9105ZM35.2775 18.4524C35.2948 18.4891 38.0371 18.5161 41.3713 18.5122C51.0371 18.5012 56.4958 18.4979 61.8159 18.5003C64.5465 18.5014 67.404 18.4888 68.1661 18.4722L69.5517 18.442L77.5848 15.5283C82.0028 13.9257 85.675 12.5554 85.7451 12.4829C85.9209 12.3015 85.8804 11.6223 85.6832 11.4438C85.4821 11.2637 70.1155 5.70502 69.4708 5.57916C69.1009 5.50686 60.6156 5.45919 55.061 5.49805C53.426 5.50945 50.0035 5.51292 41.5906 5.5117C38.933 5.51133 36.4162 5.51545 35.9978 5.52091L35.2369 5.5308L35.2415 11.9582C35.244 15.4933 35.2602 18.4157 35.2775 18.4524ZM68.9851 15.8554C68.0938 15.0555 67.8331 14.7838 67.896 14.7205C67.9415 14.6746 68.6268 14.0571 69.4191 13.3481C70.2115 12.6391 70.8821 12.0366 70.9096 12.0093C70.9372 11.982 70.2491 11.322 69.3807 10.5427L67.8017 9.12563L68.0188 8.97408C68.1382 8.8907 68.6455 8.44015 69.1461 7.97281C69.682 7.47261 70.1129 7.12714 70.1935 7.13292C70.3 7.14067 77.319 9.64766 79.7954 10.5624L80.2527 10.7314L79.9764 11.0169C79.8244 11.1739 79.6528 11.4574 79.595 11.647C79.4704 12.0553 79.6592 12.709 79.9878 13.0069C80.1155 13.1226 80.1834 13.2347 80.1388 13.2559C80.0943 13.2771 77.8302 14.1073 75.1074 15.1007L70.1568 16.9069L68.9851 15.8554ZM25.3866 15.3831C25.6463 16.4274 26.5576 17.5421 27.5658 18.0487C28.3162 18.4257 29.0359 18.5179 31.2104 18.5158C33.1212 18.514 33.3787 18.4908 33.4011 18.3184C33.4505 17.9378 33.4218 5.61001 33.3714 5.55687C33.3433 5.53164 32.3127 5.51441 31.0812 5.51858C29.0788 5.52536 28.766 5.55412 28.1215 5.79072C26.5635 6.36266 25.5732 7.49202 25.3361 8.96742C25.1973 9.83127 25.2362 14.7785 25.3866 15.3831Z" fill="#34399E"/>
<path d="M11.875 3.31445C12.3248 3.02746 12.8711 2.93138 13.3916 3.04883C13.912 3.16631 14.3636 3.48719 14.6465 3.93945L16.249 6.50098C16.5337 6.95608 16.6234 7.50732 16.498 8.0293C16.3727 8.55094 16.043 9.00019 15.583 9.27637L11.0293 12.0088L15.5664 14.6748C16.031 14.9478 16.366 15.3968 16.4951 15.9199C16.6243 16.443 16.5371 16.9963 16.2529 17.4541L14.6045 20.1094C14.3224 20.5639 13.8703 20.8873 13.3486 21.0059C12.8272 21.1244 12.2798 21.0289 11.8291 20.7412L2.92383 15.0527C2.34854 14.6853 2 14.0498 2 13.3672V10.7109C2.00016 10.0283 2.3484 9.39269 2.92383 9.02539L11.875 3.31445Z" fill="#FF9E24" stroke="#34399E" stroke-width="4" stroke-linejoin="round"/>
<path d="M109.107 13.3672C109.107 14.0506 108.758 14.6865 108.182 15.0537L99.2539 20.7422C98.3239 21.3347 97.0898 21.0623 96.4951 20.1338L94.8691 17.5957C94.5784 17.1416 94.4833 16.5887 94.6055 16.0635C94.7277 15.5384 95.0573 15.0848 95.5186 14.8057L100.062 12.0547L95.542 9.40527C95.0818 9.13548 94.7486 8.69256 94.6162 8.17578C94.4839 7.65918 94.5633 7.11106 94.8369 6.65332L96.4395 3.97363L96.5518 3.80566C96.8311 3.43034 97.235 3.16272 97.6943 3.05371C98.2194 2.92918 98.773 3.02222 99.2285 3.31152L108.18 9C108.757 9.36692 109.107 10.0034 109.107 10.6875V13.3672Z" fill="#FF9E24" stroke="#34399E" stroke-width="4" stroke-linejoin="round"/>
</svg>
